# xmcd
#
# Track frame offsets:
#	150
#	8471
#	16594
#	28013
#	39866
#	50103
#	61604
#	73891
#	84751
#	93315
#	102371
#	112698
#	123029
#	132072
#	144998
#	153696
#	163218
#	174928
#	183557
#	193491
#	204691
#	214690
#	224238
#	232993
#	242107
#	251007
#	263291
#	273195
#
# Disc length: 3781 seconds
# Revision: 0
# Processed by: cddbd v1.5.2PL0 Copyright (c) Steve Scherf et al.
# Submitted via: dBpowerAMP V12.0
#
DISCID=7a0ec31c
DTITLE=Johny Cash - The Very Best Of Johny Cash
DYEAR=2012
DGENRE=Blues
TTITLE0=Five Feet High And Rising
TTITLE1=I Call Him
TTITLE2=I'd Rather Die Young
TTITLE3=The Ballad Of Boot Hill
TTITLE4=Hank And Joe And Me
TTITLE5=Clementine
TTITLE6=My Grandfather's Clock
TTITLE7=Run Softly, Blue River
TTITLE8=Swing Low, Sweet Chariot
TTITLE9=Pickin' Time
TTITLE10=Frankie's Man Johny
TTITLE11=The Troubadour
TTITLE12=I Want Go Home (Sloop John B.)
TTITLE13=Suppertime
TTITLE14=Are All The Children In
TTITLE15=I Got Stripes
TTITLE16=Don't Step On Mother's Roses
TTITLE17=That's All Over
TTITLE18=Great Speckled Bird
TTITLE19=Lead Me Father
TTITLE20=Shepherd Of My Heart
TTITLE21=The Caretaker
TTITLE22=Dirink To Me
TTITLE23=Lead Me Gently Home
TTITLE24=He'll Be A Friend
TTITLE25=That's Enogh
TTITLE26=The Man On The Hill
TTITLE27=Snow In His Hair
EXTD=
EXTT0=
EXTT1=
EXTT2=
EXTT3=
EXTT4=
EXTT5=
EXTT6=
EXTT7=
EXTT8=
EXTT9=
EXTT10=
EXTT11=
EXTT12=
EXTT13=
EXTT14=
EXTT15=
EXTT16=
EXTT17=
EXTT18=
EXTT19=
EXTT20=
EXTT21=
EXTT22=
EXTT23=
EXTT24=
EXTT25=
EXTT26=
EXTT27=
PLAYORDER=
